<?xml version="1.0" encoding="utf-8"?>
<!-- Generator: Adobe Illustrator 22.1.0, SVG Export Plug-In . SVG Version: 6.00 Build 0)  -->
<svg version="1.1" xmlns="http://www.w3.org/2000/svg" xmlns:xlink="http://www.w3.org/1999/xlink" x="0px" y="0px"
	 viewBox="0 0 100 100" style="enable-background:new 0 0 100 100;" xml:space="preserve">
<style type="text/css">
	.st30{fill:#296E91;}
	.st51{fill:#D378F9;}
</style>
	<circle class="st30" cx="50" cy="50" r="41.5"/>
	<path class="st51" d="M73.5,28.6c-1.9,2.1-3.8,4.2-5.6,6.2c-4.3,4.8-8.7,9.6-13,14.3c-0.6,0.6-0.5,0.9,0,1.5
		c5.8,5.8,11.6,11.7,17.4,17.5c0.6,0.6,0.7,1,0.2,1.7c-0.4,0.6-0.7,1.2-1,1.8c-0.7,1.3-0.7,1.3-1.8,0.3c-2.7-2.4-5.3-4.8-8-7.2
		c-3.6-3.2-7.2-6.5-10.8-9.7c-0.6-0.6-1-0.6-1.6,0.1c-4.9,5.5-9.8,10.8-14.7,16.3c-0.7,0.8-1.2,0.8-2,0.2c-1.6-1.3-3.3-2.5-4.9-3.6
		c-0.7-0.5-0.8-0.8-0.1-1.4c5.6-5.4,11.1-10.8,16.6-16.1c0.7-0.6,0.7-0.9,0-1.5c-5.2-4.6-10.3-9.2-15.5-13.8
		c-0.8-0.7-0.9-1.2-0.5-2.2c0.9-1.9,1.7-3.8,2.5-5.7c0.3-0.7,0.5-0.8,1.1-0.2c5.5,5.8,11.1,11.6,16.6,17.3c1.1,1.1,1.1,1.1,2.2,0
		c5.9-5.7,11.9-11.4,17.8-17c0.3-0.3,0.7-0.5,1.1-0.3C70.8,27.5,72.1,28,73.5,28.6z"/>
</svg>
