<?xml version="1.0" encoding="utf-8"?>
<!-- Generator: Adobe Illustrator 22.1.0, SVG Export Plug-In . SVG Version: 6.00 Build 0)  -->
<svg version="1.1" xmlns="http://www.w3.org/2000/svg" xmlns:xlink="http://www.w3.org/1999/xlink" x="0px" y="0px"
	 viewBox="0 0 100 100" style="enable-background:new 0 0 100 100;" xml:space="preserve">
<style type="text/css">
	.st30{fill:#ceb7a3;}
	.st52{fill:#0b0;}
</style>
	<circle class="st30" cx="50" cy="50" r="41.5"/>
	<path class="st52" d="M17.7,51c2.3-0.6,4.4-1.1,6.5-1.6c0.8-0.2,1.4,0,2,0.5c4.6,3.5,8.8,7.5,12.4,12.1c0.3,0.4,0.7,0.8,1.1,1.4
		c1.2-1.9,2.3-3.7,3.5-5.5c6.2-9.7,13.3-18.6,22-26.2c1.6-1.4,3.3-2.8,5.1-4.1c0.5-0.4,1-0.5,1.7-0.3c1.8,0.6,3.6,1.2,5.6,1.8
		c-0.9,0.7-1.7,1.2-2.4,1.8c-8.4,6.4-15.3,14.2-21.1,23c-4.3,6.4-7.7,13.2-10.7,20.3c-0.3,0.6-0.6,0.9-1.2,1
		c-1.9,0.3-3.8,0.7-5.6,1.1c-0.6,0.1-0.8,0-0.9-0.6c-1.3-6.2-4.5-11.3-8.5-16C24.3,56.4,21.2,53.7,17.7,51z"/>
</svg>
